<svg xmlns="http://www.w3.org/2000/svg" width="48" height="48" fill="none" viewBox="0 0 48 48"><path stroke="#E879F9" stroke-width="1.642" d="M18.9473 11.2421H30.3157"/><mask id="path-2-inside-1_1909_232654" fill="#fff"><rect width="13.895" height="11.368" x="17.684" y="8.842" rx="1.263"/></mask><rect width="13.895" height="11.368" x="17.684" y="8.842" stroke="#9DA5AE" stroke-width="3.284" mask="url(#path-2-inside-1_1909_232654)" rx="1.263"/><path stroke="#E879F9" stroke-width="1.642" d="M8.8418 31.4526H20.2102"/><mask id="path-4-inside-2_1909_232654" fill="#fff"><rect width="13.895" height="11.368" x="7.578" y="29.053" rx="1.263"/></mask><rect width="13.895" height="11.368" x="7.578" y="29.053" stroke="#9DA5AE" stroke-width="3.284" mask="url(#path-4-inside-2_1909_232654)" rx="1.263"/><path stroke="#E879F9" stroke-width="1.642" d="M29.0527 31.4526H40.4212"/><mask id="path-6-inside-3_1909_232654" fill="#fff"><rect width="13.895" height="11.368" x="27.789" y="29.053" rx="1.263"/></mask><rect width="13.895" height="11.368" x="27.789" y="29.053" stroke="#9DA5AE" stroke-width="3.284" mask="url(#path-6-inside-3_1909_232654)" rx="1.263"/><path stroke="#9DA5AE" stroke-width="1.642" d="M14.5254 30.3158V25.8948C14.5254 25.1971 15.0909 24.6316 15.7885 24.6316H33.4728C34.1704 24.6316 34.7359 25.1971 34.7359 25.8947V30.3158"/><path stroke="#9DA5AE" stroke-width="1.642" d="M24.6316 18.9474V24"/></svg>